<svg width="20" height="16" viewBox="0 0 20 16" fill="none" xmlns="http://www.w3.org/2000/svg">
<path fill-rule="evenodd" clip-rule="evenodd" d="M16.826 6.99934L12.241 1.65034C11.881 1.23034 11.93 0.599344 12.349 0.240344C12.768 -0.118656 13.399 -0.069656 13.759 0.348344L19.759 7.34834C19.801 7.39634 19.822 7.45434 19.853 7.50734C19.877 7.55034 19.908 7.58734 19.926 7.63434C19.972 7.75034 19.999 7.87134 19.999 7.99434C19.999 7.99634 20 7.99834 20 7.99934C19.999 8.12734 19.972 8.24834 19.926 8.36434C19.908 8.41134 19.877 8.44834 19.853 8.49134C19.822 8.54434 19.801 8.60234 19.759 8.65034L13.759 15.6503C13.562 15.8803 13.281 15.9993 13 15.9993C12.769 15.9993 12.538 15.9203 12.349 15.7583C11.93 15.3993 11.881 14.7683 12.241 14.3483L16.826 8.99934L1 8.99934C0.448 8.99934 0 8.55134 0 7.99934C0 7.44734 0.448 6.99934 1 6.99934L16.826 6.99934Z" fill="white"/>
</svg>
