<svg width="24" height="24" viewBox="0 0 24 24" fill="none" xmlns="http://www.w3.org/2000/svg">
<g clip-path="url(#clip0)">
<path d="M3.0002 22C2.7402 22 2.4802 21.9 2.2902 21.71C2.0202 21.44 1.9302 21.05 2.0502 20.69L3.8202 15.37C3.2802 14.15 3.0002 12.83 3.0002 11.5C3.0002 7.88 5.0102 4.63 8.2502 3.01C9.5502 2.35 11.0202 2 12.4802 2C12.4902 2 12.5002 2 12.5002 2H13.0002C17.8902 2.27 21.7302 6.11 22.0002 10.94V11.5C22.0002 12.97 21.6602 14.44 20.9902 15.75C19.3802 18.99 16.1202 21 12.5002 21C11.1602 21 9.8502 20.72 8.6302 20.18L3.3102 21.95C3.2102 21.98 3.1102 22 3.0002 22ZM12.4802 4C11.3302 4 10.1802 4.27 9.1502 4.79C6.5902 6.07 5.0002 8.64 5.0002 11.5C5.0002 12.66 5.2702 13.82 5.7902 14.85C5.9102 15.09 5.9302 15.36 5.8502 15.62L4.5802 19.42L8.3802 18.15C8.6302 18.06 8.9102 18.09 9.1502 18.21C10.1802 18.73 11.3202 19.03 12.5002 19C15.3602 19 17.9302 17.41 19.2102 14.85C19.7302 13.82 20.0002 12.66 20.0002 11.5V11C19.7902 7.24 16.7602 4.21 12.9402 4H12.5002C12.4902 4 12.4902 4 12.4802 4Z" fill="black"/>
</g>
<defs>
<clipPath id="clip0">
<rect width="20" height="20" fill="white" transform="translate(2 2)"/>
</clipPath>
</defs>
</svg>
