<svg width="16" height="16" viewBox="0 0 16 16" fill="none" xmlns="http://www.w3.org/2000/svg">
<path fill-rule="evenodd" clip-rule="evenodd" d="M7.99967 14.6668C11.6818 14.6668 14.6663 11.6823 14.6663 8.00016C14.6663 4.31807 11.6818 1.3335 7.99967 1.3335C4.31758 1.3335 1.33301 4.31807 1.33301 8.00016C1.33301 11.6823 4.31758 14.6668 7.99967 14.6668ZM7.99967 2.66683C10.9454 2.66683 13.333 5.05447 13.333 8.00016C13.333 10.9459 10.9454 13.3335 7.99967 13.3335C5.05398 13.3335 2.66634 10.9459 2.66634 8.00016C2.66634 5.05447 5.05398 2.66683 7.99967 2.66683ZM7.99967 5.66683C7.53944 5.66683 7.16634 5.29373 7.16634 4.8335C7.16634 4.37326 7.53944 4.00016 7.99967 4.00016C8.45991 4.00016 8.83301 4.37326 8.83301 4.8335C8.83301 5.29373 8.45991 5.66683 7.99967 5.66683ZM7.99967 6.3335C7.63148 6.3335 7.33301 6.63197 7.33301 7.00016V11.6668C7.33301 12.035 7.63148 12.3335 7.99967 12.3335C8.36786 12.3335 8.66634 12.035 8.66634 11.6668V7.00016C8.66634 6.63197 8.36786 6.3335 7.99967 6.3335Z" fill="#D40000"/>
</svg>
