<svg width="24" height="24" viewBox="0 0 24 24" fill="none" xmlns="http://www.w3.org/2000/svg">
<path d="M6.78678 16.4165C7.75598 17.4264 8.73616 18.4252 9.72068 19.4194C10.6269 20.3344 11.7803 21.6906 13.1049 20.5866C13.8013 20.0062 14.4141 19.2831 15.0489 18.6326C15.859 17.8028 16.6656 16.9693 17.4672 16.1307C18.2129 15.3508 18.954 14.5656 19.6802 13.7662C20.458 12.9098 21.2116 12.0412 21.6295 10.9308C22.5955 8.3636 21.6 5.63751 19.4876 4.06028C17.3805 2.487 14.4244 2.97961 12.6444 4.8071C12.4345 5.03116 12.2248 5.25508 12.0151 5.47914C11.6839 5.11791 11.3501 4.75839 10.9965 4.42296C9.87853 3.36243 8.31344 2.85626 6.81028 3.03543C3.5571 3.42325 1.58193 6.63379 2.07515 9.84183C2.29443 11.2685 3.12825 12.4156 4.03908 13.459C4.92476 14.4735 5.8559 15.4465 6.78678 16.4165ZM5.56906 5.21901C6.83391 4.42428 8.52595 4.57593 9.6816 5.50968C10.3218 6.02691 10.8602 6.71963 11.4235 7.32111C11.7335 7.65219 12.2874 7.65233 12.5974 7.32111C13.0044 6.88642 13.4113 6.45173 13.8182 6.01717C14.8761 4.93098 16.309 4.5708 17.7304 5.0405C19.0792 5.48625 20.1453 6.91749 20.3271 8.34675C20.5191 9.85842 19.8068 11.0907 18.8574 12.1646C17.9866 13.1495 17.0781 14.0996 16.1708 15.0486C15.195 16.0694 14.2105 17.0811 13.2228 18.0896C12.8656 18.4543 12.5077 18.8181 12.1495 19.1816C11.8916 19.443 11.2946 18.6124 11.0934 18.4099C9.15888 16.461 7.22164 14.5053 5.39154 12.4512C4.51813 11.4708 3.75876 10.4569 3.64177 9.07817C3.50832 7.50804 4.27433 6.03244 5.56906 5.21901Z" fill="black"/>
</svg>
