<svg width="14" height="14" viewBox="0 0 14 14" fill="none" xmlns="http://www.w3.org/2000/svg">
<path d="M11.8034 13.6668C11.7547 13.6668 11.7 13.6668 11.6514 13.6607C9.68755 13.448 7.77844 12.767 6.13078 11.6969C4.59863 10.7241 3.2732 9.3987 2.30041 7.86656C1.23034 6.21281 0.549382 4.29762 0.342664 2.3338C0.294024 1.83524 0.439943 1.36101 0.756101 0.990131C1.06618 0.613174 1.51001 0.388216 1.99033 0.339576C2.04505 0.333496 2.09977 0.333496 2.15449 0.333496H3.97848C3.98456 0.333496 3.99064 0.333496 3.99672 0.333496C4.89655 0.333496 5.6687 1.00229 5.79638 1.90212C5.86934 2.44324 6.0031 2.97219 6.19158 3.48291C6.44086 4.14563 6.28278 4.89954 5.77814 5.40418L5.34038 5.84193C6.05782 6.96064 7.00629 7.9152 8.13108 8.63263L8.56884 8.19487C9.07347 7.69632 9.83347 7.53216 10.4962 7.78144C11.0008 7.96992 11.5359 8.10367 12.0709 8.17055C12.989 8.29823 13.6638 9.09471 13.6456 10.0128V11.8307C13.6456 12.3171 13.4571 12.7731 13.1166 13.1196C12.7762 13.4662 12.3141 13.6547 11.8277 13.6607C11.8155 13.6668 11.8095 13.6668 11.8034 13.6668ZM3.99063 1.54949C3.98456 1.54949 3.98456 1.54949 3.99063 1.54949H2.15449C1.93561 1.56773 1.78969 1.64069 1.68633 1.76836C1.58297 1.88996 1.53433 2.04804 1.54649 2.2122C1.73497 3.97539 2.34905 5.70817 3.31576 7.20992C4.19735 8.59615 5.3951 9.7939 6.78133 10.6755C8.277 11.6483 10.0037 12.2563 11.7669 12.4508C11.9797 12.4752 12.1256 12.39 12.2411 12.2745C12.3566 12.159 12.4174 12.007 12.4174 11.8428V10.0189C12.4174 10.0128 12.4174 10.0067 12.4174 10.0006C12.4235 9.69054 12.1986 9.4291 11.8946 9.38654C11.2744 9.3075 10.6543 9.14943 10.0584 8.93055C9.83347 8.84543 9.58419 8.90015 9.41395 9.06431L8.6418 9.83646C8.44724 10.031 8.14932 10.0675 7.9122 9.93374C6.29494 9.01567 4.95735 7.672 4.03927 6.06081C3.9116 5.81153 3.94808 5.51361 4.14263 5.31906L4.91479 4.5469C5.07895 4.38274 5.13367 4.13347 5.04855 3.90851C4.82359 3.31267 4.67159 2.69252 4.58647 2.06628C4.54999 1.77444 4.28855 1.54949 3.99063 1.54949Z" fill="black"/>
</svg>
