<svg width="24" height="24" viewBox="0 0 24 24" fill="none" xmlns="http://www.w3.org/2000/svg">
<path fill-rule="evenodd" clip-rule="evenodd" d="M17.5455 3.81818C16.5414 3.81818 15.7274 4.63221 15.7274 5.63636C15.7274 6.64052 16.5414 7.45455 17.5455 7.45455C18.5497 7.45455 19.3637 6.64052 19.3637 5.63636C19.3637 4.63221 18.5497 3.81818 17.5455 3.81818ZM13.9092 5.63636C13.9092 3.62806 15.5372 2 17.5455 2C19.5539 2 21.1819 3.62806 21.1819 5.63636C21.1819 7.64467 19.5539 9.27273 17.5455 9.27273C15.5372 9.27273 13.9092 7.64467 13.9092 5.63636Z" fill="black"/>
<path fill-rule="evenodd" clip-rule="evenodd" d="M6.63636 10.1818C5.63221 10.1818 4.81818 10.9959 4.81818 12C4.81818 13.0042 5.63221 13.8182 6.63636 13.8182C7.64052 13.8182 8.45455 13.0042 8.45455 12C8.45455 10.9959 7.64052 10.1818 6.63636 10.1818ZM3 12C3 9.9917 4.62806 8.36365 6.63636 8.36365C8.64467 8.36365 10.2727 9.9917 10.2727 12C10.2727 14.0083 8.64467 15.6364 6.63636 15.6364C4.62806 15.6364 3 14.0083 3 12Z" fill="black"/>
<path fill-rule="evenodd" clip-rule="evenodd" d="M17.5455 16.5455C16.5414 16.5455 15.7274 17.3595 15.7274 18.3637C15.7274 19.3678 16.5414 20.1818 17.5455 20.1818C18.5497 20.1818 19.3637 19.3678 19.3637 18.3637C19.3637 17.3595 18.5497 16.5455 17.5455 16.5455ZM13.9092 18.3637C13.9092 16.3554 15.5372 14.7273 17.5455 14.7273C19.5539 14.7273 21.1819 16.3554 21.1819 18.3637C21.1819 20.372 19.5539 22 17.5455 22C15.5372 22 13.9092 20.372 13.9092 18.3637Z" fill="black"/>
<path fill-rule="evenodd" clip-rule="evenodd" d="M8.20532 12.915C8.4581 12.4812 9.01469 12.3345 9.44849 12.5873L15.6576 16.2055C16.0914 16.4582 16.2381 17.0148 15.9853 17.4486C15.7326 17.8824 15.176 18.0292 14.7422 17.7764L8.53308 14.1582C8.09928 13.9054 7.95254 13.3488 8.20532 12.915Z" fill="black"/>
<path fill-rule="evenodd" clip-rule="evenodd" d="M15.976 6.55088C16.229 6.98452 16.0826 7.5412 15.649 7.79426L9.44899 11.4124C9.01535 11.6655 8.45867 11.5191 8.20561 11.0855C7.95255 10.6518 8.09894 10.0952 8.53257 9.8421L14.7326 6.22392C15.1662 5.97086 15.7229 6.11725 15.976 6.55088Z" fill="black"/>
</svg>
