<svg width="56" height="56" viewBox="0 0 56 56" fill="none" xmlns="http://www.w3.org/2000/svg">
<path fill-rule="evenodd" clip-rule="evenodd" d="M23.333 15.1668C23.333 12.5895 25.4223 10.5002 27.9997 10.5002C30.577 10.5002 32.6663 12.5895 32.6663 15.1668C32.6663 17.7442 30.577 19.8335 27.9997 19.8335C25.4223 19.8335 23.333 17.7442 23.333 15.1668ZM27.9997 5.8335C22.845 5.8335 18.6663 10.0122 18.6663 15.1668C18.6663 20.3215 22.845 24.5002 27.9997 24.5002C33.1543 24.5002 37.333 20.3215 37.333 15.1668C37.333 10.0122 33.1543 5.8335 27.9997 5.8335ZM18.6663 38.5002C18.6663 34.6342 21.8003 31.5002 25.6663 31.5002H30.333C34.199 31.5002 37.333 34.6342 37.333 38.5002V47.8335C37.333 49.1222 38.3777 50.1668 39.6663 50.1668C40.955 50.1668 41.9997 49.1222 41.9997 47.8335V38.5002C41.9997 32.0568 36.7763 26.8335 30.333 26.8335H25.6663C19.223 26.8335 13.9997 32.0568 13.9997 38.5002V47.8335C13.9997 49.1222 15.0443 50.1668 16.333 50.1668C17.6217 50.1668 18.6663 49.1222 18.6663 47.8335V38.5002ZM6.99967 38.5002C6.99967 35.9228 9.08901 33.8335 11.6663 33.8335H12.833C14.1217 33.8335 15.1663 32.7888 15.1663 31.5002C15.1663 30.2115 14.1217 29.1668 12.833 29.1668H11.6663C6.51168 29.1668 2.33301 33.3455 2.33301 38.5002V43.1668C2.33301 44.4555 3.37768 45.5002 4.66634 45.5002C5.95501 45.5002 6.99967 44.4555 6.99967 43.1668V38.5002ZM40.833 31.5002C40.833 30.2115 41.8777 29.1668 43.1663 29.1668H44.333C49.4877 29.1668 53.6663 33.3455 53.6663 38.5002V43.1668C53.6663 44.4555 52.6217 45.5002 51.333 45.5002C50.0443 45.5002 48.9997 44.4555 48.9997 43.1668V38.5002C48.9997 35.9228 46.9103 33.8335 44.333 33.8335H43.1663C41.8777 33.8335 40.833 32.7888 40.833 31.5002ZM11.6663 17.5002C10.3777 17.5002 9.33301 18.5448 9.33301 19.8335C9.33301 21.1222 10.3777 22.1668 11.6663 22.1668C12.955 22.1668 13.9997 21.1222 13.9997 19.8335C13.9997 18.5448 12.955 17.5002 11.6663 17.5002ZM4.66634 19.8335C4.66634 15.9675 7.80035 12.8335 11.6663 12.8335C15.5323 12.8335 18.6663 15.9675 18.6663 19.8335C18.6663 23.6995 15.5323 26.8335 11.6663 26.8335C7.80035 26.8335 4.66634 23.6995 4.66634 19.8335ZM41.9997 19.8335C41.9997 18.5448 43.0443 17.5002 44.333 17.5002C45.6217 17.5002 46.6663 18.5448 46.6663 19.8335C46.6663 21.1222 45.6217 22.1668 44.333 22.1668C43.0443 22.1668 41.9997 21.1222 41.9997 19.8335ZM44.333 12.8335C40.467 12.8335 37.333 15.9675 37.333 19.8335C37.333 23.6995 40.467 26.8335 44.333 26.8335C48.199 26.8335 51.333 23.6995 51.333 19.8335C51.333 15.9675 48.199 12.8335 44.333 12.8335Z" fill="black"/>
</svg>
