<svg width="355" height="38" viewBox="0 0 355 38" fill="none" xmlns="http://www.w3.org/2000/svg">
<g clip-path="url(#clip0)">
<path d="M90.0996 19.6056C91.3161 20.8167 91.9244 22.5578 91.8484 24.4502C91.7723 27.5538 89.6434 30.8845 85.1574 30.8845C81.3558 30.8845 78.6946 28.1594 78.6946 24.2988C78.6946 20.5139 81.3558 17.7132 85.0814 17.7132C87.2103 17.7132 88.9591 18.3944 90.0996 19.6056ZM85.0814 14.3068C79.3029 14.3068 75.2731 18.3187 75.2731 24.1474C75.2731 30.0518 79.2268 34.0638 85.0054 34.0638C87.8946 34.0638 90.3277 32.5498 91.6963 30.7331L91.8484 33.5339H95.1178V14.8367H91.7723V17.7888C90.3277 15.8964 87.8946 14.3068 85.0814 14.3068ZM46.6085 9.38646C46.6085 12.5657 51.3226 12.5657 51.3226 9.46215C51.3226 6.28287 46.6085 6.28287 46.6085 9.38646ZM47.1407 33.6096H50.8664V14.8367H47.1407V33.6096ZM42.1985 20.9681C41.8184 16.7291 38.4729 14.3825 32.9225 14.3825C28.0563 14.3825 24.7869 16.7291 24.7869 20.1355C24.7869 23.1634 26.7638 24.8287 31.0977 25.4343L34.5952 25.9641C37.1043 26.3426 38.4729 26.9482 38.4729 28.6136C38.4729 30.2789 36.7241 31.263 33.7588 31.263C30.4894 31.263 28.4365 29.9761 27.8282 27.6295H24.1786C24.7109 31.6414 28.2844 34.0638 33.7588 34.0638C39.0051 34.0638 42.4266 31.7928 42.4266 28.3108C42.4266 25.2072 40.3737 23.5418 35.6597 22.8606L31.782 22.255C29.653 21.9522 28.6646 21.1195 28.6646 19.757C28.6646 18.1673 30.3373 17.1076 32.8464 17.1076C36.2679 17.1076 38.0927 18.3187 38.625 20.8924L42.1985 20.9681ZM65.2367 22.5578L74.2086 33.6096H69.7987V33.5339L62.4995 24.6016L60.0664 26.7968V33.6096H56.3408V7.03984H60.0664V23.0877L69.2664 14.8367H73.9805L73.7524 14.9881L65.2367 22.5578ZM3.72564 22.4821C3.72564 22.4064 3.72564 22.4064 3.72564 22.3307C4.1058 20.6653 5.01821 19.3785 6.31077 18.4701C6.38681 18.3944 6.46284 18.3187 6.61491 18.3187H6.69094H6.76697C6.91904 18.243 7.07111 18.1673 7.22318 18.0916C7.37524 18.0159 7.60334 17.9402 7.75541 17.8645C7.90748 17.7888 8.13558 17.7132 8.36368 17.7132C8.51574 17.6375 8.66781 17.6375 8.89591 17.6375H8.97194H9.04798C9.20004 17.6375 9.27608 17.6375 9.42814 17.5618C9.80831 17.4861 10.1124 17.4861 10.3405 17.4861C13.8381 17.4861 16.2712 19.3785 16.8794 22.4821V22.5578V22.6335C16.9555 23.012 16.9555 23.3904 17.0315 23.6932H3.57357C3.57357 23.1634 3.6496 22.8606 3.72564 22.4821ZM16.3472 27.7052C15.4348 29.9761 13.5339 31.1116 10.6447 31.1116C6.69094 31.1116 4.02977 28.9163 3.6496 25.3586C3.6496 25.3586 3.57357 24.8287 3.57357 24.5259H20.7571V24.4502C20.6811 22.7092 20.453 21.4223 19.8447 19.9841C18.4001 16.502 14.9025 14.3825 10.4166 14.3825C4.25787 14.3825 0 18.4701 0 24.3745C0 30.2032 4.18184 34.1394 10.3405 34.1394C15.2827 34.1394 18.5522 32.0956 20.453 27.7809V27.7052H16.3472ZM20.7571 0L5.01821 12.7928L5.39837 13.3227L21.1373 0.529881L20.7571 0Z" fill="white"/>
<path d="M131.918 33.9442V12.9761H134.123V31.749H150.394V33.9442H131.918ZM183.469 31.749V22.6653H196.166V20.4701H183.469V15.1713H199.664V12.9761H181.264V33.9442H199.664V31.749H183.469ZM204.986 12.9761V33.9442H223.386V31.749H207.115V12.9761H204.986ZM148.189 12.9761V17.2908L150.394 18.7291V13.0518H148.189V12.9761ZM172.14 20.8486C174.801 21.7569 176.702 24.255 176.702 27.2071C176.702 30.9163 173.736 33.9442 170.011 33.9442H155.868V12.9761H168.49C171.151 12.9761 173.28 15.0956 173.28 17.745C173.28 18.9562 172.824 20.0159 172.14 20.8486ZM168.49 15.1713H158.073V20.4701H168.566C170.011 20.3944 171.151 19.2589 171.151 17.8207C171.151 16.3068 169.935 15.1713 168.49 15.1713ZM158.073 31.749H170.011C172.52 31.749 174.497 29.7052 174.497 27.2071C174.497 24.7091 172.444 22.6653 169.935 22.6653H158.073V31.749Z" fill="white"/>
<path d="M340.173 25.6511V11.42H345.116V14.2965H343.215V22.6989H345.116V25.5754H340.173V25.6511ZM350.058 14.2965V11.42H355V25.6511H350.058V22.7746H351.959V14.2965H350.058ZM331.126 18.687C331.126 17.173 331.81 16.4918 332.874 16.4918C333.939 16.4918 334.623 17.2487 334.623 18.687V22.1691H331.126V18.687ZM338.425 25.1212V18.7627C338.425 15.2806 336.448 13.1611 332.798 13.1611C329.225 13.1611 327.248 15.3563 327.248 18.7627V29.6631C327.248 33.2208 329.301 35.2647 332.798 35.2647C336.372 35.2647 338.425 33.2208 338.425 29.6631V27.0894H334.699V29.6631C334.699 31.2527 333.939 31.934 332.874 31.934C332.038 31.934 331.202 31.3284 331.202 29.6631V25.1212H338.425ZM315.615 19.8224L319.264 35.0376H324.206V13.3882H320.709V28.3762L317.211 13.3882H312.117V35.0376H315.615V19.8224ZM305.198 29.7388C305.198 31.2527 304.514 31.934 303.373 31.934C302.233 31.934 301.549 31.177 301.549 29.7388V18.687C301.549 17.173 302.157 16.4918 303.373 16.4918C304.59 16.4918 305.198 17.2487 305.198 18.687V29.7388ZM303.373 13.1611C299.724 13.1611 297.671 15.3563 297.671 18.7627V29.6631C297.671 33.1451 299.724 35.2647 303.373 35.2647C307.023 35.2647 309.076 33.0695 309.076 29.6631V18.7627C309.076 15.2806 307.023 13.1611 303.373 13.1611ZM285.658 16.6432H291.284L285.582 31.7826V35.0376H295.314V31.7826H289.535L295.162 16.6432V13.3882H285.582V16.6432H285.658ZM280.259 13.3882H284.137L278.739 40.185H274.861L276.381 32.9181L271.743 13.3882H275.849L278.206 26.5595L280.259 13.3882ZM270.603 29.6631V27.0894H266.877V29.6631C266.877 31.2527 266.117 31.934 265.129 31.934H265.053C264.14 31.934 263.38 31.3284 263.38 29.6631V18.687C263.38 17.173 264.064 16.4918 265.053 16.4918H265.205C266.269 16.4918 266.953 17.2487 266.953 18.687V20.9579H270.679V18.7627C270.679 15.2806 268.626 13.1611 265.281 13.1611H265.053C261.631 13.1611 259.502 15.3563 259.502 18.7627V29.6631C259.502 33.2208 261.555 35.2647 265.053 35.2647H265.281C268.626 35.3404 270.603 33.2965 270.603 29.6631Z" fill="white"/>
</g>
<defs>
<clipPath id="clip0">
<rect width="355" height="38" fill="white"/>
</clipPath>
</defs>
</svg>
