<svg width="79" height="25" viewBox="0 0 79 25" fill="none" xmlns="http://www.w3.org/2000/svg">
<path fill-rule="evenodd" clip-rule="evenodd" d="M66.3911 12.2353V0.505981L70.4551 0.505981V2.90475H68.8999V9.83653H70.4551V12.2353H66.3911ZM74.5192 2.90475V0.505981L78.5832 0.505981V12.2353H74.5192V9.83588H76.0761V2.90475H74.5192ZM58.9329 6.52473C58.9329 5.30145 59.5089 4.71025 60.3821 4.71025C61.2592 4.71025 61.8349 5.30511 61.8349 6.53288V9.36157H58.9329V6.52473ZM64.9183 11.8401V6.56507C64.9183 3.70487 63.2853 1.91294 60.3218 1.91294C57.3602 1.91294 55.7289 3.7031 55.7289 6.56507V15.5852C55.7289 18.5354 57.3873 20.2329 60.3218 20.2329C63.2573 20.2329 64.9183 18.5354 64.9183 15.5852V13.4457H61.8349V15.5852C61.8349 16.9018 61.223 17.4375 60.3245 17.4375C59.6215 17.4375 58.9329 16.9099 58.9329 15.5879V11.8401H64.9183ZM46.216 7.43817L49.1947 20.0151H53.2369V2.13249H50.3438V14.5185L47.4787 2.13249L43.3184 2.13249V20.0151L46.216 20.0151V7.43817ZM37.632 15.6148C37.632 16.8424 37.0868 17.4374 36.117 17.4374C35.148 17.4374 34.62 16.8434 34.62 15.6255V6.52464C34.62 5.3015 35.148 4.71017 36.117 4.71017C37.0868 4.71017 37.632 5.30503 37.632 6.53279V15.6148ZM36.0989 1.913C33.0843 1.913 31.4161 3.70302 31.4161 6.56499L31.4161 15.5851C31.4161 18.4419 33.0843 20.2329 36.0989 20.2329C39.1102 20.2329 40.812 18.4419 40.812 15.5851V6.56499C40.812 3.70492 39.1102 1.913 36.0989 1.913ZM21.5479 4.8371L26.2021 4.8371L21.5146 17.3132V20.015H29.5405V17.3132H24.8194L29.4449 4.8371V2.13244L21.5479 2.13244V4.8371ZM17.1037 2.13248L20.2806 2.13248L15.8436 24.2237L12.6324 24.2237L13.8941 18.2527L10.0871 2.13248L13.4507 2.13248L15.3705 13.0373L17.1037 2.13248ZM9.20223 15.5851V13.4457L6.1171 13.4457V15.5851C6.1171 16.9017 5.4878 17.4375 4.70206 17.4375H4.6082C3.87837 17.4375 3.2167 16.9099 3.2167 15.588L3.2167 6.5247C3.2167 5.30142 3.8026 4.71022 4.6082 4.71022H4.70206C5.54915 4.71022 6.1171 5.30508 6.1171 6.53285V8.38767H9.20223L9.20223 6.56504C9.20223 3.70484 7.54288 1.91305 4.74165 1.91305H4.55433C1.7214 1.91305 0.0117188 3.70307 0.0117188 6.56504L0.0117188 15.5851C0.0117188 18.5354 1.68903 20.2329 4.55433 20.2329H4.74165C7.54288 20.2329 9.20223 18.5354 9.20223 15.5851Z" fill="black"/>
</svg>
