<svg width="79" height="29" viewBox="0 0 79 29" fill="none" xmlns="http://www.w3.org/2000/svg">
<path fill-rule="evenodd" clip-rule="evenodd" d="M74.5867 16.8137C75.559 17.8214 76.0685 19.244 76.0203 20.8193C75.937 23.3714 74.1843 26.1187 70.5329 26.1187C67.4117 26.1187 65.2315 23.8781 65.2315 20.6704C65.2315 17.5306 67.4482 15.2523 70.5027 15.2523C72.1884 15.2523 73.6001 15.7919 74.5867 16.8137ZM70.4399 12.4675C65.7043 12.4675 62.3965 15.8021 62.3965 20.5773C62.3965 25.4828 65.617 28.7792 70.4093 28.7792C72.7769 28.7792 74.7681 27.5465 75.897 26.0264L76.0225 28.3635L76.023 28.3706H78.7311V12.8781H75.9589L75.9335 15.3C74.7792 13.7513 72.7381 12.4675 70.4399 12.4675ZM38.8046 8.37363C38.8046 10.9835 42.7024 10.9835 42.7024 8.40992C42.7024 5.79997 38.8046 5.79997 38.8046 8.37363ZM39.2204 28.3569H42.2864V12.8864H39.2204V28.3569ZM35.1655 17.9145C34.8267 14.402 32.1289 12.4666 27.5583 12.4666C23.5649 12.4666 20.8824 14.3864 20.8824 17.2437C20.8824 19.7363 22.5385 21.1316 26.0925 21.6351L28.9895 22.09C31.0457 22.4303 32.16 22.8799 32.16 24.2798C32.16 25.6497 30.718 26.4681 28.3024 26.4681C25.6248 26.4681 23.914 25.4091 23.416 23.4753H20.4193C20.8739 26.8003 23.7861 28.7769 28.3024 28.7769C32.619 28.7769 35.4088 26.9015 35.4088 23.9993C35.4088 21.4173 33.7447 20.0618 29.8448 19.4684L26.6353 19.0128C24.8762 18.7343 24.092 18.1021 24.092 16.9643C24.092 15.6349 25.4528 14.7756 27.5583 14.7756C30.3548 14.7756 31.8698 15.7772 32.312 17.9145H35.1655ZM54.1458 19.2491L61.5278 28.3572H57.8888L57.863 28.3254L51.855 20.9744L49.8256 22.7788V28.3572H46.7596V6.44795L49.8256 6.44795V19.7085L57.3738 12.8865H61.2598L61.0893 13.0381L54.1458 19.2491ZM3.57908 19.1611L3.59241 19.1018H3.58895C3.59241 19.0898 3.59612 19.0775 3.59958 19.0643C3.92737 17.7098 4.66174 16.6135 5.72339 15.8937C5.79669 15.8434 5.87011 15.7937 5.94559 15.7476C5.96353 15.7367 5.98083 15.7267 5.99876 15.7164L6.04182 15.6918C6.16586 15.6196 6.29093 15.5534 6.41522 15.4951L6.43854 15.4842C6.58488 15.4159 6.73622 15.3537 6.88858 15.2992L6.89716 15.2963C7.05324 15.241 7.21393 15.1917 7.37602 15.1503L7.4037 15.142C7.53915 15.1084 7.68087 15.0784 7.83631 15.0516L7.8818 15.0428C7.90281 15.0391 7.92306 15.0347 7.94446 15.0316C8.04325 15.0163 8.14436 15.0054 8.24661 14.9948C8.53685 14.9615 8.78237 14.9464 9.02007 14.9464C11.8721 14.9464 13.8746 16.4805 14.3779 19.0538L14.3912 19.0995C14.3917 19.1004 14.3919 19.1012 14.3919 19.1018H14.3853L14.3958 19.1588C14.4527 19.4805 14.4866 19.7759 14.5 20.0599H3.43197C3.45965 19.7723 3.50783 19.4773 3.57908 19.1611ZM13.9492 23.5055C13.1911 25.3516 11.6107 26.2871 9.25158 26.2871C5.99616 26.2871 3.78445 24.4599 3.47935 21.5197C3.47896 21.5152 3.43975 21.0798 3.42886 20.8122L17.5405 20.8122L17.5385 20.7618C17.4864 19.3273 17.276 18.2668 16.8102 17.1013C15.6318 14.207 12.7254 12.4789 9.03566 12.4789C4.00344 12.4789 0.488281 15.8647 0.488281 20.7122C0.488281 25.5433 3.89888 28.7894 8.97467 28.7894C13.0355 28.7894 15.7496 27.0734 17.2717 23.5433L17.301 23.4753L13.9613 23.4753L13.9492 23.5055ZM17.5682 0.636963L4.64645 11.2064L4.9809 11.6191L17.9032 1.04954L17.5682 0.636963Z" fill="black"/>
</svg>
