<svg width="76" height="19" viewBox="0 0 76 19" fill="none" xmlns="http://www.w3.org/2000/svg">
<path fill-rule="evenodd" clip-rule="evenodd" d="M0.44043 18.2531L0.44043 0.93457L2.23864 0.93457L2.23864 16.4491H15.5824V18.2531L0.44043 18.2531ZM42.8292 16.4491V8.93677L53.2545 8.93677V7.13263L42.8292 7.13263V2.73855L56.1425 2.73855V0.93457L41.031 0.93457V18.2531L56.1727 18.2531V16.4491H42.8292ZM60.5033 0.93457V18.2531L75.6452 18.2531V16.4491H62.3013V0.93457L60.5033 0.93457ZM13.7848 0.93457V4.48343L15.5827 5.64623V0.93457L13.7848 0.93457ZM33.4741 7.43372C35.6577 8.18242 37.2281 10.2531 37.2281 12.6924C37.2281 15.7461 34.7676 18.2237 31.7229 18.25V18.2536H20.1189L20.1189 0.93457L30.4639 0.935427C32.6423 0.935771 34.4085 2.70402 34.4085 4.88483C34.4085 5.85716 34.056 6.74566 33.4741 7.43372ZM30.4736 2.73683L21.9183 2.73648V7.13125L30.5394 7.13125C31.7174 7.09553 32.6629 6.11634 32.6629 4.92811C32.6629 3.71808 31.6826 2.73683 30.4736 2.73683ZM21.9183 16.4491L31.7229 16.4491C33.7768 16.4258 35.4357 14.754 35.4357 12.6924C35.4357 10.6164 33.7415 8.93334 31.6797 8.93334H31.6761V8.93265H21.9183L21.9183 16.4491Z" fill="black"/>
</svg>
